<svg xmlns="http://www.w3.org/2000/svg" xmlns:xlink="http://www.w3.org/1999/xlink" width="1920" height="1080" viewBox="0 0 1920 1080">
  <defs>
    <clipPath id="clip-path">
      <path id="Path_2" data-name="Path 2" d="M0,0H54V32.4H0Z" fill="#fff"/>
    </clipPath>
    <clipPath id="clip-Web_1920_1">
      <rect width="1920" height="1080"/>
    </clipPath>
  </defs>
  <g id="Web_1920_1" data-name="Web 1920 – 1" clip-path="url(#clip-Web_1920_1)">
    <rect width="1920" height="1080" fill="#fff"/>
    <g id="favicon" transform="translate(886 426)" clip-path="url(#clip-path)">
      <path id="Path_1" data-name="Path 1" d="M27,0Q16.2,0,13.5,10.8q4.05-5.4,9.45-4.05c2.054.513,3.522,2,5.147,3.653,2.647,2.687,5.711,5.8,12.4,5.8Q51.3,16.2,54,5.4q-4.05,5.4-9.45,4.05c-2.054-.513-3.522-2-5.147-3.653C36.756,3.11,33.692,0,27,0ZM13.5,16.2Q2.7,16.2,0,27q4.05-5.4,9.45-4.05c2.054.514,3.522,2,5.147,3.653,2.647,2.687,5.711,5.8,12.4,5.8q10.8,0,13.5-10.8-4.05,5.4-9.45,4.05C29,25.137,27.528,23.646,25.9,22,23.256,19.31,20.192,16.2,13.5,16.2Z" fill="#9333ea" fill-rule="evenodd"/>
    </g>
  </g>
</svg>
